<svg version="1.1" xmlns="http://www.w3.org/2000/svg"  viewBox="0 0 126 32" width="100%" height="100%">
<title>navbar-brand</title>
<path id="XMLID_81_" class="st0" d="M2,24.9V4.4h12.6v2.3H4.5v6.7h9.1v2.3H4.5v6.9h10.6v2.3H2z"></path>
<path id="XMLID_83_" class="st0" d="M21.8,24.9h-2.4v-22h2.4V24.9z"></path>
<path id="XMLID_85_" class="st0" d="M35.4,18.5c-1.3,0.5-2.7,1-4,1.5c-1.3,0.5-2.6,1-4,1.5c0.3,0.4,0.7,0.7,1.2,1     c0.5,0.2,1,0.4,1.6,0.4c0.9,0,1.6-0.3,2.2-0.9l1.5,1.8c-0.5,0.5-1,0.9-1.7,1.1c-0.6,0.3-1.3,0.4-2.1,0.4c-0.8,0-1.6-0.2-2.3-0.5     c-0.7-0.3-1.3-0.7-1.9-1.2c-0.5-0.5-0.9-1.1-1.2-1.8c-0.3-0.7-0.5-1.4-0.5-2.2c0-0.8,0.2-1.5,0.5-2.2c0.3-0.7,0.7-1.3,1.2-1.8     c0.5-0.5,1.1-0.9,1.9-1.2c0.7-0.3,1.5-0.5,2.3-0.5c0.6,0,1.2,0.1,1.7,0.4c0.6,0.2,1.1,0.6,1.5,1c0.4,0.4,0.8,0.9,1.2,1.5     C35,17.2,35.2,17.8,35.4,18.5z M30.2,16c-0.8,0-1.5,0.2-2,0.6c-0.6,0.4-1,0.9-1.2,1.5c-0.1,0.3-0.2,0.6-0.2,1     c0.9-0.3,1.8-0.7,2.7-1c0.9-0.3,1.8-0.7,2.7-1c-0.3-0.3-0.6-0.6-0.9-0.8C31,16.1,30.6,16,30.2,16z"></path>
<path id="XMLID_88_" class="st0" d="M38.9,13.9h2.1v0.3c0,0.5,0.1,0.9,0.1,1.3s0.1,0.8,0.1,1.3c0.4-0.9,1-1.7,1.9-2.2     c0.8-0.5,1.8-0.8,2.9-0.9c1.1,0,1.9,0.3,2.6,0.8c0.7,0.5,1,1.2,1.2,2.1c0.4-0.9,1.1-1.6,1.9-2.1c0.8-0.5,1.8-0.8,2.8-0.8     c1.2,0,2.1,0.3,2.7,0.9c0.7,0.6,1,1.4,1.1,2.4v8h-2.4v-6.9c0-0.5-0.2-1-0.6-1.4c-0.3-0.4-0.9-0.6-1.6-0.6c-0.5,0-1,0.1-1.5,0.3     c-0.5,0.2-0.9,0.4-1.2,0.7c-0.4,0.3-0.6,0.7-0.9,1.1c-0.2,0.4-0.3,0.9-0.3,1.4v5.3h-2.4v-6.9c0-0.5-0.2-1-0.6-1.4     c-0.3-0.4-0.9-0.6-1.6-0.6c-0.5,0-1,0.1-1.5,0.3c-0.5,0.2-0.9,0.4-1.2,0.7c-0.4,0.3-0.6,0.7-0.9,1.1c-0.2,0.4-0.3,0.9-0.3,1.4v5.3     h-2.4V13.9z"></path>
<path id="XMLID_90_" class="st0" d="M72,18.5c-1.3,0.5-2.7,1-4,1.5c-1.3,0.5-2.6,1-4,1.5c0.3,0.4,0.7,0.7,1.2,1     c0.5,0.2,1,0.4,1.6,0.4c0.9,0,1.6-0.3,2.2-0.9l1.5,1.8c-0.5,0.5-1,0.9-1.7,1.1c-0.6,0.3-1.3,0.4-2.1,0.4c-0.8,0-1.6-0.2-2.3-0.5     c-0.7-0.3-1.3-0.7-1.9-1.2c-0.5-0.5-0.9-1.1-1.2-1.8c-0.3-0.7-0.5-1.4-0.5-2.2c0-0.8,0.2-1.5,0.5-2.2c0.3-0.7,0.7-1.3,1.2-1.8     c0.5-0.5,1.1-0.9,1.9-1.2c0.7-0.3,1.5-0.5,2.3-0.5c0.6,0,1.2,0.1,1.7,0.4c0.6,0.2,1.1,0.6,1.5,1c0.4,0.4,0.8,0.9,1.2,1.5     C71.5,17.2,71.8,17.8,72,18.5z M66.8,16c-0.8,0-1.5,0.2-2,0.6c-0.6,0.4-1,0.9-1.2,1.5c-0.1,0.3-0.2,0.6-0.2,1     c0.9-0.3,1.8-0.7,2.7-1c0.9-0.3,1.8-0.7,2.7-1c-0.3-0.3-0.6-0.6-0.9-0.8C67.6,16.1,67.2,16,66.8,16z"></path>
<path id="XMLID_93_" class="st0" d="M75.5,13.9h2.1v0.3c0,0.5,0.1,0.9,0.1,1.3s0.1,0.8,0.1,1.3c0.4-0.9,1-1.7,1.9-2.2     c0.9-0.6,1.8-0.8,2.9-0.8c1.2,0,2.1,0.3,2.7,0.9c0.7,0.6,1,1.4,1.1,2.4v8H84v-6.9c0-0.5-0.2-1-0.6-1.4c-0.3-0.4-0.9-0.6-1.6-0.6     c-0.5,0-1,0.1-1.5,0.3c-0.5,0.2-0.9,0.4-1.2,0.7c-0.4,0.3-0.6,0.7-0.9,1.1c-0.2,0.4-0.3,0.9-0.3,1.4v5.3h-2.4V13.9z"></path>
<path id="XMLID_95_" class="st0" d="M90.8,6.8h2.4v6.9h2.9V16h-2.9v8.9h-2.4V16h-2.5v-2.4h2.5V6.8z"></path>
<path id="XMLID_97_" class="st0" d="M96.7,19.4c0-0.8,0.2-1.5,0.5-2.2c0.3-0.7,0.7-1.3,1.2-1.8c0.5-0.5,1.2-0.9,1.9-1.3     c0.7-0.3,1.5-0.5,2.3-0.5c0.5,0,1,0.1,1.5,0.2c0.5,0.2,0.8,0.3,1.2,0.5c0.3,0.2,0.6,0.4,0.8,0.5c0.2,0.2,0.3,0.3,0.3,0.4     c0-0.2,0-0.4,0.1-0.7c0-0.2,0.1-0.5,0.1-0.7h2v11h-2.1V24v-0.3c0,0.1-0.1,0.2-0.3,0.3s-0.4,0.3-0.7,0.5c-0.3,0.2-0.7,0.3-1.2,0.5     c-0.5,0.1-1,0.2-1.6,0.2c-0.8,0-1.6-0.2-2.3-0.5c-0.7-0.3-1.3-0.7-1.9-1.2c-0.5-0.5-0.9-1.1-1.2-1.8C96.9,21,96.7,20.2,96.7,19.4z      M99.2,19.4c0,1,0.3,1.8,1,2.4c0.6,0.7,1.5,1,2.5,1s1.8-0.3,2.5-1c0.6-0.7,1-1.5,1-2.4c0-1-0.3-1.8-1-2.4s-1.5-1-2.5-1     s-1.8,0.3-2.5,1C99.5,17.6,99.2,18.4,99.2,19.4z"></path>
<path id="XMLID_100_" class="st0" d="M119,16.1c-1.2,0-2.2,0.3-2.9,1c-0.7,0.7-1.1,1.5-1.1,2.5v5.3h-2.4v-11h2.1v0.3     c0,0.5,0.1,0.9,0.1,1.3s0.1,0.8,0.1,1.3c0.2-0.5,0.5-0.9,0.9-1.3c0.4-0.4,0.7-0.7,1.1-1c0.4-0.3,0.8-0.5,1.2-0.6     c0.4-0.1,0.7-0.2,1-0.2L119,16.1z"></path>
<path id="XMLID_102_" class="st0" d="M121.4,9.7c0-0.4,0.2-0.8,0.5-1.1c0.3-0.3,0.7-0.4,1.1-0.4c0.4,0,0.7,0.1,1,0.4     c0.3,0.3,0.5,0.7,0.5,1.1c0,0.5-0.2,0.8-0.5,1.1c-0.3,0.3-0.7,0.4-1,0.4c-0.4,0-0.7-0.1-1.1-0.4C121.5,10.5,121.4,10.1,121.4,9.7z      M124.1,24.9h-2.4v-11h2.4V24.9z"></path> 
</svg>