<svg version="1.1" id="Layer_1" xmlns="http://www.w3.org/2000/svg" xmlns:xlink="http://www.w3.org/1999/xlink" x="0px" y="0px" viewBox="0 0 111.3 33" style="enable-background:new 0 0 111.3 33;" xml:space="preserve">
    <style type="text/css">
        .st0{fill:#FFFFFF;stroke:#FFFFFF;stroke-width:0.5;stroke-miterlimit:10;}
    </style>
    <path class="st0" d="M0.5,32.4V0.5h9.4V4h-6v10.2h4.3v3.4H3.9V29h6v3.4H0.5z"/>
    <path  class="st0" d="M11.7,32.3V0.5h3.4v31.8H11.7z"/>
    <path class="st0" d="M22.9,32.5c-0.8,0-1.5-0.2-2.1-0.6c-0.6-0.4-1.1-0.9-1.4-1.5c-0.4-0.6-0.6-1.4-0.9-2.3
        c-0.2-1-0.4-1.9-0.5-2.9c-0.1-1-0.1-2.1-0.2-3.3c0-1,0-2,0-3c0-1.2,0.1-2.2,0.2-3.2c0.1-0.9,0.3-1.8,0.5-2.7
        c0.2-0.9,0.5-1.6,0.9-2.1c0.4-0.6,0.9-1,1.4-1.3s1.3-0.5,2.1-0.5c0.7,0,1.4,0.1,1.9,0.4c0.6,0.3,1,0.6,1.4,1.2
        c0.4,0.5,0.7,1.1,0.9,1.7c0.2,0.6,0.4,1.4,0.6,2.3c0.1,0.9,0.2,1.8,0.3,2.6c0,0.9,0.1,1.9,0.1,3v0.5h-6.8v1.1c0,0.2,0,0.4,0,0.7
        c0,0.4,0,0.9,0,1.4c0,0.5,0,0.9,0,1.4c0,0.4,0.1,0.9,0.1,1.3c0.1,0.4,0.2,0.8,0.3,1.1c0.1,0.3,0.3,0.6,0.5,0.7
        c0.2,0.2,0.5,0.3,0.7,0.3c0.4,0,0.6-0.1,0.9-0.3c0.2-0.2,0.4-0.5,0.5-0.8c0.1-0.4,0.2-0.7,0.2-1.1c0-0.4,0.1-0.8,0.1-1.4v-1H28v0.9
        c-0.1,2.4-0.5,4.3-1.3,5.5C25.9,31.9,24.6,32.5,22.9,32.5z M21.3,18.5h3.4v-1.4c0-0.6,0-1.1-0.1-1.6s-0.1-0.9-0.2-1.4
        c-0.1-0.4-0.3-0.8-0.5-1c-0.2-0.2-0.5-0.4-0.9-0.4c-0.3,0-0.6,0.1-0.9,0.4c-0.2,0.2-0.4,0.6-0.5,1.1c-0.1,0.5-0.2,0.9-0.2,1.4
        c0,0.4-0.1,1-0.1,1.6V18.5z"/>
    <path class="st0" d="M30.5,32.2V9.4h3.4V12c1.2-1.9,2.6-2.9,4.2-2.9c0.8,0,1.4,0.2,1.8,0.7
        c0.4,0.5,0.6,1.2,0.8,2.3c0.6-1,1.2-1.7,1.8-2.2C43.2,9.4,44,9.1,45,9.1c0.3,0,0.5,0,0.8,0.1c0.2,0.1,0.4,0.2,0.6,0.3
        c0.2,0.1,0.3,0.3,0.4,0.5c0.1,0.2,0.2,0.4,0.3,0.6c0.1,0.2,0.2,0.4,0.2,0.8c0.1,0.3,0.1,0.6,0.1,0.9c0,0.2,0,0.6,0.1,1s0,0.8,0,1
        c0,0.2,0,0.6,0,1.1c0,0.1,0,0.2,0,0.2v16.5h-3.4V15.6c0-0.1,0-0.2,0-0.3c0-0.4,0-0.7,0-0.9c0-0.2,0-0.5-0.1-0.7
        c0-0.3-0.1-0.5-0.3-0.6c-0.1-0.1-0.3-0.2-0.5-0.2c-0.3,0-0.7,0.1-1,0.3c-0.3,0.2-0.6,0.4-0.8,0.5c-0.2,0.2-0.4,0.4-0.7,0.7v17.8
        h-3.4V15.7c0-0.1,0-0.2,0-0.3c0-0.3,0-0.6,0-0.7c0-0.2,0-0.4,0-0.6c0-0.3-0.1-0.5-0.1-0.6c-0.1-0.1-0.1-0.2-0.3-0.4
        c-0.1-0.1-0.3-0.2-0.4-0.2c-0.8,0-1.7,0.5-2.6,1.4v17.9H30.5z"/>
    <path class="st0" d="M55.3,32.5c-0.8,0-1.5-0.2-2.1-0.6s-1.1-0.9-1.4-1.5c-0.4-0.6-0.6-1.4-0.9-2.3
        c-0.2-1-0.4-1.9-0.5-2.9c-0.1-1-0.1-2.1-0.2-3.3c0-1,0-2,0-3c0-1.2,0.1-2.2,0.2-3.2c0.1-0.9,0.3-1.8,0.5-2.7
        c0.2-0.9,0.5-1.6,0.9-2.1c0.4-0.6,0.9-1,1.4-1.3c0.6-0.3,1.3-0.5,2.1-0.5c0.7,0,1.4,0.1,1.9,0.4c0.6,0.3,1,0.6,1.4,1.2
        c0.4,0.5,0.7,1.1,0.9,1.7c0.2,0.6,0.4,1.4,0.6,2.3c0.1,0.9,0.2,1.8,0.3,2.6c0,0.9,0.1,1.9,0.1,3v0.5h-6.8v1.1c0,0.2,0,0.4,0,0.7
        c0,0.4,0,0.9,0,1.4s0,0.9,0,1.4s0.1,0.9,0.1,1.3c0.1,0.4,0.2,0.8,0.3,1.1c0.1,0.3,0.3,0.6,0.5,0.7c0.2,0.2,0.5,0.3,0.7,0.3
        c0.4,0,0.6-0.1,0.9-0.3c0.2-0.2,0.4-0.5,0.5-0.8c0.1-0.4,0.2-0.7,0.2-1.1c0-0.4,0.1-0.8,0.1-1.4v-1h3.4v0.9
        c-0.1,2.4-0.5,4.3-1.3,5.5C58.3,31.9,57,32.5,55.3,32.5z M53.6,18.5H57v-1.4c0-0.6,0-1.1-0.1-1.6s-0.1-0.9-0.2-1.4
        c-0.1-0.4-0.3-0.8-0.5-1c-0.2-0.2-0.5-0.4-0.9-0.4c-0.3,0-0.6,0.1-0.9,0.4c-0.2,0.2-0.4,0.6-0.5,1.1c-0.1,0.5-0.2,0.9-0.2,1.4
        c0,0.4-0.1,1-0.1,1.6V18.5z"/>
    <path class="st0" d="M62.9,32.2V9.4h3.4v2.5c0.5-0.6,0.9-1.1,1.2-1.4s0.8-0.6,1.3-0.9c0.6-0.3,1.2-0.4,1.8-0.4
        c0.7,0,1.3,0.4,1.8,1.1c0.5,0.7,0.7,1.6,0.7,2.6v19.4h-3.4V15.1c0-0.8-0.1-1.4-0.3-1.7c-0.2-0.4-0.5-0.5-1-0.5
        c-0.3,0-0.6,0.1-0.9,0.2c-0.3,0.2-0.5,0.3-0.6,0.4c-0.1,0.1-0.3,0.4-0.6,0.6v18H62.9z"/>
    <path class="st0" d="M80.8,32.5c-1.3,0-2.3-0.5-2.9-1.4S77,28.8,76.9,27V12.8h-1.7V9.4h1.7v-8h3.4v8h2.6v3.4h-2.6
        v13.3c0,0.9,0.1,1.6,0.3,2c0.2,0.4,0.6,0.6,1.1,0.6c0.2,0,0.6-0.1,1.1-0.2v3.7C82,32.4,81.3,32.5,80.8,32.5z"/>
    <path class="st0" d="M88.3,32.5c-0.9,0-1.8-0.5-2.4-1.6c-0.7-1.1-1-2.3-1-3.7c0-1.1,0.1-2.1,0.4-3s0.6-1.6,0.9-2.2
        c0.3-0.5,0.8-1.1,1.6-1.7c0.7-0.6,1.3-1,1.6-1.2c0.4-0.2,1-0.6,1.9-1c0.2-0.1,0.3-0.1,0.4-0.2v-1.6c0-1.1-0.1-2-0.4-2.7
        c-0.2-0.6-0.7-1-1.3-1c-0.6,0-1,0.3-1.3,0.8c-0.3,0.5-0.4,1.3-0.4,2.2c0,0.1,0,0.3,0,0.6h-3.4c0-2.2,0.5-3.9,1.4-5.2
        c0.9-1.3,2.1-1.9,3.7-1.9c1.6,0,2.8,0.7,3.7,2c0.9,1.3,1.4,3,1.4,5.2v10.2c0,2.4,0.1,4.3,0.4,5.7h-3.4l-0.5-3.4
        c-0.2,0.5-0.3,0.8-0.4,1.1s-0.3,0.6-0.5,1c-0.2,0.4-0.4,0.7-0.6,0.9c-0.2,0.2-0.5,0.4-0.8,0.5S88.7,32.5,88.3,32.5z M90,28.8
        c0.2,0,0.5-0.1,0.7-0.3c0.2-0.2,0.4-0.4,0.5-0.6c0.1-0.2,0.3-0.4,0.4-0.7c0-0.1,0-0.1,0.1-0.1v-6.3c-0.1,0.1-0.4,0.3-0.7,0.6
        c-0.3,0.3-0.6,0.5-0.8,0.7c-0.2,0.2-0.4,0.4-0.7,0.7c-0.3,0.3-0.5,0.6-0.6,0.9c-0.2,0.3-0.3,0.6-0.4,1s-0.2,0.8-0.2,1.3
        C88.3,27.8,88.9,28.8,90,28.8z"/>
    <path class="st0" d="M98.1,32.2V9.4h3.4v3c0.3-0.9,0.8-1.7,1.5-2.4c0.7-0.7,1.4-1,2.2-1c0,0,0.2,0,0.5,0.1v5
        c-0.6-0.3-1.3-0.5-1.9-0.5c-0.7,0-1.3,0.3-1.7,0.9c-0.4,0.6-0.7,1.3-0.7,2.3v15.4H98.1z"/>
    <path class="st0" d="M107.4,6V1.5h3.4V6H107.4z M107.4,32.2V9.4h3.4v22.7H107.4z"/>
</svg>
