<svg version="1.1" xmlns="http://www.w3.org/2000/svg"  viewBox="-75.3 239.9 81.3 81.3" width="100%" height="100%">
<title>turn-page</title>
    <style type="text/css">  
    .st0{fill:#FFFFFF;stroke:#000000;stroke-width:2;stroke-miterlimit:10;}</style>
<path class="st0" d="M-11.5 276l-33.2-33.1c-1.2-1.3-2.7-1.9-4.6-1.9s-3.4 0.6-4.6 1.9l-3.9 3.8c-1.3 1.3-1.9 2.8-1.9 4.6 0 1.8 0.6 3.3 1.9 4.6l24.7 24.7 -24.7 24.7c-1.3 1.3-1.9 2.8-1.9 4.6 0 1.8 0.6 3.3 1.9 4.6l3.9 3.8c1.3 1.3 2.8 1.9 4.6 1.9 1.8 0 3.3-0.6 4.6-1.9l33.2-33.1c1.3-1.3 1.9-2.9 1.9-4.6C-9.6 278.8-10.2 277.3-11.5 276z"/></svg>
